<svg xmlns="http://www.w3.org/2000/svg" width="1200" height="630" viewBox="0 0 1200 630" preserveAspectRatio="xMidYMid meet">
  <!--
    Open-Graph share image for agonzx.dev links.
    1200×630 is the spec used by LinkedIn, X/Twitter, Slack and most
    chat apps when they unfurl a URL.  Composition is the dark hero
    in miniature: monumental {x} mark on the left, brand lockup +
    role on the right, subtle radial blob behind the mark.
  -->
  <defs>
    <radialGradient id="ogDarkGlow1" cx="22%" cy="50%" r="50%">
      <stop offset="0%" stop-color="#6B6BFF" stop-opacity="0.22"/>
      <stop offset="60%" stop-color="#0B0F1A" stop-opacity="0"/>
    </radialGradient>
    <radialGradient id="ogDarkGlow2" cx="92%" cy="14%" r="42%">
      <stop offset="0%" stop-color="#6B6BFF" stop-opacity="0.10"/>
      <stop offset="80%" stop-color="#0B0F1A" stop-opacity="0"/>
    </radialGradient>
  </defs>

  <rect width="1200" height="630" fill="#0B0F1A"/>
  <rect width="1200" height="630" fill="url(#ogDarkGlow1)"/>
  <rect width="1200" height="630" fill="url(#ogDarkGlow2)"/>

  <!-- {x} mark · scale 17 ≈ 559×374 px, vertically centred -->
  <g transform="translate(80 128) scale(17)">
    <path fill="#6B6BFF" opacity="0.18" d="M8.639 2.367H7.988Q6.958 2.367 6.467 2.923Q5.976 3.479 5.976 4.615V6.379Q5.976 7.024 5.864 7.627Q5.751 8.231 5.482 8.710Q5.213 9.189 4.766 9.506Q4.320 9.822 3.651 9.905Q4.331 9.982 4.778 10.293Q5.225 10.604 5.491 11.083Q5.757 11.562 5.867 12.169Q5.976 12.775 5.976 13.450V15.213Q5.976 16.320 6.470 16.876Q6.964 17.432 7.988 17.432H8.639V20.107H7.438Q4.970 20.107 3.728 18.879Q2.485 17.651 2.485 15.201V13.284Q2.485 12.781 2.396 12.420Q2.308 12.059 2.118 11.825Q1.929 11.592 1.636 11.482Q1.343 11.373 0.935 11.373H0.639V8.426H0.935Q1.349 8.426 1.642 8.320Q1.935 8.213 2.121 7.982Q2.308 7.751 2.396 7.388Q2.485 7.024 2.485 6.515V4.598Q2.485 2.124 3.716 0.908Q4.947 -0.308 7.438 -0.308H8.639Z"/>
    <path fill="#6B6BFF" d="M19.083 9.802L23.669 16.423H19.550L16.349 11.547L13.237 16.423H9.343L13.728 9.849L9.391 3.376H13.509L16.467 8.151L19.373 3.376H23.266Z"/>
    <path fill="#6B6BFF" opacity="0.18" d="M24.267 17.431H24.918Q25.947 17.431 26.438 16.875Q26.929 16.319 26.929 15.183V13.419Q26.929 12.775 27.042 12.171Q27.154 11.567 27.423 11.088Q27.693 10.609 28.139 10.292Q28.586 9.976 29.255 9.893Q28.574 9.816 28.128 9.505Q27.681 9.195 27.415 8.716Q27.148 8.236 27.039 7.630Q26.929 7.023 26.929 6.349V4.586Q26.929 3.479 26.435 2.923Q25.941 2.367 24.918 2.367H24.267V-0.308H25.468Q27.935 -0.308 29.178 0.920Q30.420 2.148 30.420 4.598V6.515Q30.420 7.017 30.509 7.378Q30.598 7.739 30.787 7.973Q30.976 8.207 31.269 8.316Q31.562 8.426 31.970 8.426H32.266V11.372H31.970Q31.556 11.372 31.263 11.479Q30.971 11.585 30.784 11.816Q30.598 12.047 30.509 12.411Q30.420 12.775 30.420 13.283V15.201Q30.420 17.674 29.190 18.890Q27.959 20.105 25.468 20.105H24.267Z"/>
  </g>

  <g font-family="Inter, -apple-system, BlinkMacSystemFont, 'Segoe UI', sans-serif" letter-spacing="-2.4">
    <text x="700" y="298" font-size="92" font-weight="700" fill="#E8ECF7">
      agonzx<tspan fill="#6B6BFF">.dev</tspan>
    </text>
    <text x="700" y="372" font-size="38" font-weight="500" fill="#A8B3D1" letter-spacing="-0.8">
      Antonio González · Senior iOS Engineer
    </text>
    <text x="700" y="420" font-size="30" font-weight="400" fill="#6B7599" letter-spacing="-0.6">
      Remote from Spain
    </text>
  </g>
</svg>
