<svg xmlns="http://www.w3.org/2000/svg" viewBox="0 0 16450.0 3830" preserveAspectRatio="xMidYMid meet">
  <g transform="translate(0 3012) scale(1 -1)" fill="#23335C">
    <g transform="translate(0 0)"><path d="M133 1397Q133 1598 206.5 1758.5Q280 1919 417.5 2031.5Q555 2144 751.0 2204.5Q947 2265 1193 2265Q1445 2265 1644.0 2200.5Q1843 2136 1981.0 2013.0Q2119 1890 2191.5 1712.0Q2264 1534 2264 1308V0H1665V564Q1628 419 1551.5 303.5Q1475 188 1366.5 107.0Q1258 26 1119.5 -17.0Q981 -60 819 -60Q650 -60 511.5 -13.5Q373 33 274.5 118.5Q176 204 122.0 324.0Q68 444 68 591Q68 748 130.5 871.5Q193 995 310.5 1080.5Q428 1166 598.0 1211.5Q768 1257 984 1257H1665V1308Q1665 1422 1632.0 1512.0Q1599 1602 1537.0 1664.5Q1475 1727 1384.5 1760.0Q1294 1793 1179 1793Q1063 1793 978.5 1765.5Q894 1738 838.5 1687.0Q783 1636 756.5 1562.5Q730 1489 730 1397ZM1046 893Q859 893 763.0 830.5Q667 768 667 647Q667 521 767.5 453.5Q868 386 1055 386Q1187 386 1298.5 419.5Q1410 453 1491.5 512.0Q1573 571 1619.0 652.0Q1665 733 1665 828V893Z"/></g>
    <g transform="translate(2262.0 0)"><path d="M2314 2205V296Q2314 41 2238.0 -165.0Q2162 -371 2021.0 -516.0Q1880 -661 1679.0 -739.5Q1478 -818 1227 -818Q1074 -818 937.0 -789.5Q800 -761 684.5 -707.5Q569 -654 476.5 -577.5Q384 -501 319.0 -405.0Q254 -309 219.5 -195.0Q185 -81 185 46H782Q782 -43 814.5 -116.5Q847 -190 905.5 -242.5Q964 -295 1044.0 -324.0Q1124 -353 1220 -353Q1336 -353 1428.0 -308.5Q1520 -264 1583.5 -180.5Q1647 -97 1681.0 22.5Q1715 142 1715 292V784Q1678 621 1610.5 494.0Q1543 367 1448.0 279.5Q1353 192 1231.5 146.0Q1110 100 966 100Q837 100 721.0 136.0Q605 172 507.0 240.0Q409 308 330.0 405.0Q251 502 196.0 623.0Q141 744 111.5 887.5Q82 1031 82 1191Q82 1352 111.5 1493.5Q141 1635 196.0 1754.5Q251 1874 330.0 1968.5Q409 2063 507.0 2129.0Q605 2195 721.0 2230.0Q837 2265 966 2265Q1110 2265 1231.5 2221.0Q1353 2177 1448.0 2091.5Q1543 2006 1610.5 1881.0Q1678 1756 1715 1595V2205ZM1715 1191Q1715 1328 1680.0 1432.0Q1645 1536 1578.0 1606.5Q1511 1677 1413.0 1713.0Q1315 1749 1189 1749Q943 1749 814.0 1611.5Q685 1474 685 1191Q685 907 813.0 761.5Q941 616 1189 616Q1315 616 1413.0 654.5Q1511 693 1578.0 766.5Q1645 840 1680.0 947.0Q1715 1054 1715 1191Z"/></g>
    <g transform="translate(4584.0 0)"><path d="M82 1103Q82 1279 119.0 1433.5Q156 1588 225.5 1717.0Q295 1846 394.0 1948.0Q493 2050 617.0 2120.5Q741 2191 888.0 2228.0Q1035 2265 1200 2265Q1365 2265 1512.0 2228.0Q1659 2191 1783.0 2120.5Q1907 2050 2006.0 1948.0Q2105 1846 2174.5 1717.0Q2244 1588 2281.0 1433.5Q2318 1279 2318 1103Q2318 927 2281.0 772.5Q2244 618 2174.5 488.5Q2105 359 2006.0 257.5Q1907 156 1783.0 85.5Q1659 15 1512.0 -22.5Q1365 -60 1200 -60Q1035 -60 888.0 -22.5Q741 15 617.0 85.5Q493 156 394.0 257.5Q295 359 225.5 488.5Q156 618 119.0 772.5Q82 927 82 1103ZM685 1103Q685 950 720.0 830.5Q755 711 821.0 629.5Q887 548 983.0 505.0Q1079 462 1200 462Q1322 462 1417.5 504.5Q1513 547 1579.0 629.0Q1645 711 1680.0 830.5Q1715 950 1715 1103Q1715 1256 1680.0 1375.5Q1645 1495 1579.0 1576.5Q1513 1658 1417.5 1700.5Q1322 1743 1200 1743Q1079 1743 983.0 1700.5Q887 1658 821.0 1576.0Q755 1494 720.0 1375.0Q685 1256 685 1103Z"/></g>
    <g transform="translate(6864.0 0)"><path d="M727 0H128V2205H727V1542Q762 1717 830.0 1852.0Q898 1987 996.0 2078.5Q1094 2170 1221.5 2217.5Q1349 2265 1502 2265Q1680 2265 1816.5 2201.0Q1953 2137 2046.0 2012.0Q2139 1887 2186.5 1703.5Q2234 1520 2234 1281V0H1635V1181Q1635 1743 1207 1743Q1092 1743 1003.0 1704.5Q914 1666 852.5 1592.0Q791 1518 759.0 1408.5Q727 1299 727 1157Z"/></g>
    <g transform="translate(9096.0 0)"><path d="M746 476H2070V0H83V506L1311 1729H121V2205H1993V1699Z"/></g>
    <g transform="translate(11129.0 0)"><path d="M1460 2560H1350Q1176 2560 1093.0 2466.0Q1010 2372 1010 2180V1882Q1010 1773 991.0 1671.0Q972 1569 926.5 1488.0Q881 1407 805.5 1353.5Q730 1300 617 1286Q732 1273 807.5 1220.5Q883 1168 928.0 1087.0Q973 1006 991.5 903.5Q1010 801 1010 687V389Q1010 202 1093.5 108.0Q1177 14 1350 14H1460V-438H1257Q840 -438 630.0 -230.5Q420 -23 420 391V715Q420 800 405.0 861.0Q390 922 358.0 961.5Q326 1001 276.5 1019.5Q227 1038 158 1038H108V1536H158Q228 1536 277.5 1554.0Q327 1572 358.5 1611.0Q390 1650 405.0 1711.5Q420 1773 420 1859V2183Q420 2601 628.0 2806.5Q836 3012 1257 3012H1460Z"/></g>
    <g transform="translate(12537.0 160.0)"><path d="M1697 1119 2472 0H1776L1235 824L709 0H51L792 1111L59 2205H755L1255 1398L1746 2205H2404Z"/></g>
    <g transform="translate(14922.0 0)"><path d="M68.089111328125 14.15625H178.0823974609375Q352.07177734375 14.15625 435.06671142578125 108.1505126953125Q518.0616455078125 202.144775390625 518.0616455078125 394.133056640625V692.1148681640625Q518.0616455078125 801.1082153320312 537.0604858398438 903.1019897460938Q556.059326171875 1005.0957641601562 601.5565490722656 1086.0908203125Q647.0537719726562 1167.0858764648438 722.5491638183594 1220.5826110839844Q798.0445556640625 1274.079345703125 911.0376586914062 1288.0784912109375Q796.044677734375 1301.0776977539062 720.5492858886719 1353.5744934082031Q645.0538940429688 1406.0712890625 600.056640625 1487.0663452148438Q555.0593872070312 1568.0614013671875 536.5605163574219 1670.5551452636719Q518.0616455078125 1773.0488891601562 518.0616455078125 1887.0419311523438V2185.0237426757812Q518.0616455078125 2372.0123291015625 434.5667419433594 2466.006591796875Q351.07183837890625 2560.0008544921875 178.0823974609375 2560.0008544921875H68.089111328125V3011.9732666015625H271.07672119140625Q688.05126953125 3011.9732666015625 898.0384521484375 2804.4859313964844Q1108.025634765625 2596.9985961914062 1108.025634765625 2183.0238647460938V1859.0436401367188Q1108.025634765625 1774.048828125 1123.0247192382812 1713.0525512695312Q1138.0238037109375 1652.0562744140625 1170.0218505859375 1612.5586853027344Q1202.0198974609375 1573.0610961914062 1251.5168762207031 1554.5622253417969Q1301.0138549804688 1536.0633544921875 1370.0096435546875 1536.0633544921875H1420.006591796875V1038.09375H1370.0096435546875Q1300.013916015625 1038.09375 1250.5169372558594 1020.0948486328125Q1201.0199584960938 1002.095947265625 1169.5218811035156 963.0983276367188Q1138.0238037109375 924.1007080078125 1123.0247192382812 862.6044616699219Q1108.025634765625 801.1082153320312 1108.025634765625 715.1134643554688V391.13323974609375Q1108.025634765625 -26.84124755859375 900.038330078125 -232.32870483398438Q692.051025390625 -437.816162109375 271.07672119140625 -437.816162109375H68.089111328125Z"/></g>
  </g>
</svg>
