<?xml version="1.0" encoding="UTF-8" standalone="no"?>
<!DOCTYPE svg PUBLIC "-//W3C//DTD SVG 1.1//EN" "http://www.w3.org/Graphics/SVG/1.1/DTD/svg11.dtd">
<svg width="100%" height="100%" viewBox="0 0 3220 454" version="1.1" xmlns="http://www.w3.org/2000/svg" xmlns:xlink="http://www.w3.org/1999/xlink" xml:space="preserve" xmlns:serif="http://www.serif.com/" style="fill-rule:evenodd;clip-rule:evenodd;stroke-linejoin:round;stroke-miterlimit:2;">
    <g id="Layer-1" serif:id="Layer 1" transform="matrix(2.834646,0,0,2.834646,1545.619096,-912.022809)">
        <g id="g1032">
            <path id="path1026" d="M-203.351,481.591C-206.514,481.034 -207.504,480.802 -209.701,480.101C-216.024,478.085 -222.285,473.812 -226.65,468.533C-230.044,464.429 -233.175,458.174 -234.539,452.773C-236.133,446.463 -236.03,437.121 -234.298,430.945C-232.337,423.955 -228.988,418.158 -224.132,413.35C-218.61,407.883 -211.649,404.389 -204.111,403.304C-198.927,402.558 -192.81,402.925 -188.402,404.247C-184.669,405.366 -179.48,408.486 -176.43,411.444L-175.305,412.535L-175.305,405.281L-149.11,405.281L-149.244,479.496L-175.305,479.634L-175.305,471.349L-177.406,473.594C-180.034,476.402 -183.429,478.75 -186.547,479.915C-190.275,481.308 -191.575,481.514 -197.266,481.613C-200.249,481.665 -202.987,481.655 -203.351,481.591L-203.351,481.591ZM-186.149,458.504C-182.04,457.183 -178.485,454.109 -176.504,450.164C-173.859,444.9 -173.838,440.24 -176.436,434.914C-177.553,432.623 -178.121,431.811 -179.677,430.284C-182.812,427.204 -187.163,425.398 -191.445,425.398C-197.137,425.398 -202.569,428.391 -205.778,433.294C-207.479,435.894 -208.143,438.058 -208.309,441.543C-208.554,446.698 -207.048,450.577 -203.374,454.251C-201.054,456.571 -198.718,457.973 -195.912,458.73C-193.314,459.432 -188.699,459.325 -186.149,458.504L-186.149,458.504ZM-7.24,481.478C-15.308,480.351 -23.573,476.311 -29.423,470.633C-34.058,466.135 -36.932,461.715 -39.026,455.866C-40.848,450.778 -41.03,449.567 -41.023,442.587C-41.017,435.696 -40.817,434.409 -38.913,429.033C-33.964,415.058 -21.461,405.358 -5.895,403.419C-2.469,402.992 6.132,403.228 8.845,403.824C9.936,404.064 12.347,404.867 14.202,405.608L17.576,406.957L17.576,418.025C17.576,424.113 17.518,429.093 17.448,429.093C17.377,429.093 16.752,428.744 16.059,428.318C14.079,427.1 10.978,425.709 9.242,425.26C5.456,424.281 0.124,424.588 -3.156,425.973C-7.985,428.013 -11.65,431.997 -13.164,436.852C-13.845,439.036 -14.065,442.999 -13.659,445.773C-12.432,454.168 -5.908,459.875 3.163,460.489C7.255,460.766 12.562,459.229 15.971,456.78C16.709,456.25 17.372,455.816 17.444,455.816C17.517,455.816 17.576,460.803 17.576,466.898C17.576,477.221 17.544,477.989 17.113,478.122C16.858,478.2 15.816,478.612 14.798,479.038C13.779,479.464 11.457,480.202 9.638,480.678C6.449,481.513 6.119,481.547 0.378,481.628C-2.896,481.673 -6.324,481.606 -7.24,481.478ZM61.894,481.584C53.834,480.405 46.409,476.54 40.665,470.531C35.828,465.471 32.802,459.946 31.056,452.983C30.017,448.84 29.746,446.608 29.751,442.237C29.76,435.412 31.144,429.243 33.916,423.669C38.481,414.494 45.616,408.161 55.328,404.666C58.052,403.685 61.331,403.155 65.73,402.983C69.977,402.817 74.348,403.301 77.236,404.256C81.186,405.563 85.696,408.317 88.815,411.325L90.072,412.537L90.072,405.281L116.266,405.281L116.266,479.629L90.072,479.629L90.072,471.439L87.889,473.715C85.676,476.021 82.512,478.328 79.962,479.494C79.192,479.846 77.431,480.448 76.049,480.831C73.784,481.458 72.999,481.535 68.111,481.613C65.128,481.661 62.33,481.648 61.894,481.584L61.894,481.584ZM78.298,458.753C79.316,458.482 80.491,458.125 80.907,457.959C81.981,457.533 85.379,455.144 86.132,454.287C89.641,450.291 91.028,446.532 90.789,441.661C90.61,438.022 89.759,435.469 87.777,432.624C85.435,429.265 81.449,426.611 77.504,425.786C68.579,423.918 59.785,429.398 57.524,438.236C55.221,447.241 61.091,456.867 70.096,458.852C72.477,459.378 76.119,459.334 78.298,458.753L78.298,458.753ZM306.369,481.584C302.236,480.98 297.946,479.569 294.29,477.613C280.739,470.361 273.019,455.45 274.251,438.909C274.556,434.818 275.034,432.453 276.368,428.432C280.603,415.667 291.268,406.059 303.987,403.549C305.152,403.319 307.83,403.064 309.941,402.982C314.18,402.817 318.298,403.271 321.519,404.259C325.281,405.412 330.238,408.431 333.555,411.587L334.547,412.532L334.547,405.281L360.742,405.281L360.675,442.389L360.608,479.496L334.547,479.634L334.547,471.338L332.551,473.486C329.9,476.34 326.457,478.743 323.403,479.871C319.437,481.336 318.257,481.526 312.586,481.615C309.603,481.662 306.805,481.648 306.369,481.584L306.369,481.584ZM322.747,458.733C328.473,457.269 332.957,452.851 334.705,446.953C335.406,444.59 335.359,440.111 334.609,437.692C331.926,429.043 323.505,423.972 314.835,425.786C308.78,427.053 303.516,432.039 302.008,437.939C300.026,445.686 303.393,453.397 310.493,457.372C313.771,459.207 318.738,459.759 322.747,458.733L322.747,458.733ZM474.644,481.486C466.953,480.399 458.723,476.521 453.015,471.294C446.713,465.523 442.213,457.135 441.026,448.946C440.49,445.245 440.615,438.385 441.284,434.782C442.068,430.563 444.052,425.482 446.397,421.685C450.731,414.669 457.444,409.179 465.516,406.048C470.98,403.928 475.305,403.176 482.052,403.17C488.613,403.164 491.846,403.772 496.987,405.978L499.37,407L499.376,418.047C499.379,424.122 499.329,429.093 499.264,429.093C499.199,429.093 498.409,428.661 497.508,428.133C490.435,423.988 483.819,423.49 477.422,426.622C474.405,428.099 471.719,430.603 470.176,433.378C466.899,439.27 467.239,447.648 470.977,453.076C473.997,457.462 478.94,460.081 484.969,460.489C489.097,460.768 494.136,459.322 497.677,456.842C498.482,456.278 499.195,455.816 499.262,455.816C499.328,455.816 499.382,460.803 499.382,466.898C499.382,477.221 499.35,477.989 498.919,478.122C498.664,478.2 497.623,478.612 496.604,479.038C495.585,479.464 493.264,480.202 491.445,480.678C488.255,481.513 487.925,481.547 482.184,481.628C478.91,481.673 475.517,481.61 474.644,481.486L474.644,481.486ZM-327.441,479.628L-327.441,370.049L-304.091,370.16C-277.275,370.288 -277.393,370.279 -270.747,372.627C-268.477,373.428 -267.712,373.825 -265.274,375.468C-258.236,380.208 -254.685,388.076 -254.683,398.931C-254.681,408.645 -257.675,415.137 -264.298,419.781C-266.537,421.35 -266.548,421.48 -264.47,421.82C-263.815,421.927 -262.267,422.371 -261.03,422.806C-252.631,425.763 -247.888,430.461 -245.592,438.097C-244.014,443.349 -243.901,451.374 -245.331,456.61C-246.737,461.752 -248.712,465.41 -251.885,468.749C-256.852,473.974 -263.045,477.048 -271.883,478.678C-275.986,479.434 -282.629,479.624 -305.15,479.626L-327.441,479.628ZM-285.692,457.123C-275.814,456.044 -271.458,452.285 -271.948,445.262C-272.285,440.438 -274.751,437.241 -279.449,435.536C-281.75,434.701 -285.592,434.39 -293.64,434.387L-300.189,434.385L-300.189,457.404L-294.225,457.404C-290.945,457.404 -287.105,457.278 -285.692,457.123L-285.692,457.123ZM-288.222,412.832C-284.554,412.054 -281.912,410.222 -280.761,407.657C-278.767,403.214 -279.399,398.196 -282.311,395.338C-285.108,392.592 -288.016,391.811 -295.492,391.796L-300.189,391.787L-300.189,413.218L-295.095,413.213C-291.712,413.21 -289.405,413.082 -288.222,412.832L-288.222,412.832ZM-131.384,442.455L-131.384,405.281L-105.191,405.281L-105.191,409.779C-105.191,412.252 -105.11,414.277 -105.012,414.277C-104.914,414.277 -103.864,413.294 -102.679,412.094C-98.614,407.974 -94.646,405.668 -89.473,404.417C-87.356,403.905 -86.368,403.837 -81.246,403.85C-75.845,403.863 -75.242,403.914 -72.883,404.548C-63.757,407.001 -57.01,412.851 -54.412,420.565C-53.104,424.447 -53.07,425.273 -53.069,453.371L-53.069,479.634L-79.13,479.496L-79.265,456.478C-79.411,431.349 -79.292,433.222 -80.944,429.964C-81.629,428.61 -83.7,426.618 -85.227,425.841C-86.706,425.089 -89.237,424.595 -91.613,424.595C-95.662,424.595 -98.701,425.731 -101.068,428.128C-102.719,429.801 -103.701,431.59 -104.456,434.299C-105.022,436.334 -105.034,436.74 -105.128,457.999L-105.224,479.629L-131.384,479.629L-131.384,442.455ZM129.495,479.037C129.495,478.712 129.969,475.705 130.549,472.356C131.129,469.007 131.963,464.124 132.402,461.505C134.11,451.321 136.543,436.961 139.415,420.097C140.196,415.513 141.568,407.417 142.463,402.106C143.359,396.794 144.673,389.055 145.384,384.908C146.094,380.76 146.927,375.819 147.235,373.928C147.542,372.036 147.881,370.398 147.987,370.287C148.092,370.177 154.412,370.117 162.03,370.155L175.882,370.223L177.517,374.589C178.416,376.99 180.671,382.943 182.527,387.818C184.382,392.693 186.414,398.051 187.041,399.724C187.669,401.398 188.838,404.494 189.64,406.604C190.442,408.714 191.752,412.166 192.55,414.276C193.349,416.387 194.799,420.197 195.772,422.743C196.745,425.29 197.604,427.582 197.68,427.836C197.909,428.599 198.125,428.378 198.718,426.778C199.028,425.941 200.258,422.875 201.451,419.965C202.643,417.055 204.13,413.364 204.755,411.763C205.38,410.162 207.358,405.221 209.151,400.783C210.944,396.344 214.442,387.653 216.924,381.468L221.437,370.223L249.748,370.223L250.093,372.605C250.283,373.914 251.03,378.846 251.754,383.563C252.478,388.281 253.251,393.46 253.472,395.073C253.694,396.685 254.401,401.398 255.045,405.545C255.688,409.693 256.396,414.396 256.618,415.996C257.065,419.226 259.13,432.986 260.727,443.381C261.297,447.091 262.189,453.104 262.709,456.742C263.23,460.38 263.884,464.726 264.163,466.399C264.767,470.015 266.02,478.677 266.02,479.238C266.02,479.584 264.276,479.625 251.944,479.565L237.868,479.496L237.009,473.014C236.537,469.449 235.839,464.031 235.458,460.975C235.077,457.919 234.178,450.895 233.46,445.365C232.742,439.835 232.096,434.775 232.024,434.12C231.605,430.309 229.974,418.019 229.821,417.521C229.677,417.052 229.288,417.763 227.94,420.961C227.006,423.178 225.612,426.48 224.844,428.299C221.925,435.211 218.277,443.893 217.063,446.82C215.551,450.467 212.91,456.783 210.925,461.505C207.298,470.129 206.052,473.108 204.784,476.189L203.422,479.496L192.212,479.639L191.788,478.642C191.554,478.093 189.458,472.882 187.13,467.061C184.801,461.24 182.379,455.227 181.746,453.699C181.113,452.171 179.68,448.6 178.562,445.762C177.443,442.924 176.133,439.65 175.651,438.486C174.539,435.804 169.657,423.6 168.506,420.626C168.027,419.39 167.463,417.973 167.252,417.479L166.869,416.58L166.581,418.272C166.423,419.203 166.048,421.751 165.748,423.934C165.448,426.117 164.789,430.581 164.285,433.856C163.384,439.697 162.121,448.225 159.777,464.283C158.317,474.29 157.547,479.139 157.376,479.416C157.304,479.533 151.001,479.629 143.37,479.629L129.495,479.629L129.495,479.037ZM378.468,479.629L378.468,405.281L404.661,405.281L404.661,411.102C404.661,414.303 404.751,416.918 404.86,416.913C404.969,416.908 405.878,415.835 406.88,414.529C410.196,410.207 413.863,407.478 418.362,405.986C419.922,405.469 421.972,404.92 422.918,404.766C425.494,404.345 430.499,404.123 432.514,404.338L434.295,404.529L434.295,416.972C434.295,428.724 434.269,429.403 433.832,429.207C433.577,429.094 432.178,428.575 430.723,428.055L428.077,427.11L423.314,427.127C419.011,427.143 418.344,427.208 416.393,427.808C415.205,428.173 413.556,428.879 412.728,429.377C409.505,431.318 406.762,435.206 405.708,439.325C404.872,442.592 404.666,447.483 404.664,464.084L404.662,479.629L378.468,479.629ZM512.412,424.926L512.479,370.223L538.408,370.223L538.476,392.25C538.513,404.365 538.605,414.277 538.679,414.277C538.754,414.277 539.593,413.451 540.545,412.442C544.193,408.575 548.648,405.879 553.59,404.547C555.964,403.907 556.536,403.86 562.088,403.847C568.851,403.831 570.573,404.12 575.181,406.046C582.181,408.971 587.93,415.274 589.621,421.877C590.531,425.431 590.686,430.738 590.607,455.684L590.531,479.496L564.47,479.634L564.465,458.001C564.462,445.009 564.354,435.629 564.195,434.517C563.929,432.659 562.603,429.496 561.641,428.43C560.524,427.19 558.594,425.857 557.153,425.331C553.891,424.139 548.313,424.442 545.309,425.975C543.781,426.754 541.175,429.501 540.308,431.245C538.631,434.621 538.705,433.47 538.609,457.602L538.521,479.629L512.346,479.629L512.413,424.926L512.412,424.926Z" style="fill:white;fill-rule:nonzero;"/>
            <path id="path1028" d="M-545.255,480.56C-545.338,480.477 -544.336,477.769 -543.029,474.541C-541.722,471.313 -540.382,467.958 -540.051,467.085C-539.721,466.212 -537.932,461.747 -536.077,457.163C-534.221,452.579 -530.048,442.221 -526.804,434.144C-523.559,426.068 -519.269,415.412 -517.272,410.464C-515.274,405.516 -513.158,400.24 -512.57,398.738C-511.904,397.039 -511.426,396.14 -511.305,396.357C-511.123,396.684 -508.783,402.478 -496.904,432.028C-494.242,438.649 -490.195,448.71 -487.91,454.385C-479.973,474.1 -477.459,480.392 -477.459,480.551C-477.459,480.754 -545.052,480.763 -545.255,480.56L-545.255,480.56ZM-453.732,480.512C-453.844,480.321 -449.033,468.229 -436.916,438.245C-435.622,435.044 -434.291,431.71 -433.957,430.837C-433.624,429.964 -431.714,425.201 -429.713,420.254C-427.712,415.306 -424.719,407.875 -423.061,403.74C-421.402,399.605 -419.999,396.175 -419.942,396.118C-419.886,396.061 -419.308,397.361 -418.659,399.006C-417.556,401.801 -410.18,420.143 -400.008,445.389C-397.604,451.355 -395.12,457.547 -394.488,459.147C-393.856,460.748 -391.683,466.165 -389.658,471.186C-387.633,476.206 -386.029,480.403 -386.093,480.512C-386.157,480.622 -401.376,480.711 -419.913,480.711C-438.449,480.711 -453.668,480.622 -453.732,480.512ZM-465.362,406.043C-465.836,404.874 -475.816,380.056 -480.768,367.734C-484.013,359.657 -488.304,349.001 -490.304,344.054C-492.303,339.106 -494.264,334.224 -494.66,333.206C-495.056,332.187 -496.235,329.226 -497.28,326.626C-498.325,324.025 -499.135,321.852 -499.079,321.796C-499.023,321.74 -483.727,321.725 -465.088,321.761L-431.199,321.829L-431.992,323.681C-432.428,324.699 -433.298,326.842 -433.925,328.443C-434.552,330.044 -436.553,335.044 -438.372,339.556C-443.449,352.149 -456.407,384.381 -461.058,395.988C-463.349,401.706 -465.286,406.23 -465.362,406.043L-465.362,406.043Z" style="fill:white;fill-rule:nonzero;"/>
        </g>
    </g>
</svg>
