<svg xmlns="http://www.w3.org/2000/svg" viewBox="0 0 24 24" fill="white"><path d="M12.002 0a2.138 2.138 0 100 4.277 2.138 2.138 0 100-4.277zm8.54 4.931a2.138 2.138 0 100 4.277 2.138 2.138 0 100-4.277zm0 9.862a2.138 2.138 0 100 4.277 2.138 2.138 0 100-4.277zm-17.08 0a2.138 2.138 0 100 4.277 2.138 2.138 0 100-4.277zm0-9.862a2.138 2.138 0 100 4.277 2.138 2.138 0 100-4.277zm8.54 14.931a2.138 2.138 0 100 4.277 2.138 2.138 0 100-4.277zM5.55 5.55l12.9 7.45M5.55 18.45l12.9-7.45M12 2.14v19.72M2.14 7.07h19.72M2.14 16.93h19.72" stroke="white" stroke-width=".7" fill="none"/><path d="M12.002.436L2.138 6.218v11.563l9.864 5.782 9.864-5.782V6.218z" fill="none" stroke="white" stroke-width=".7"/></svg>
