<svg width="800" height="800" version="1.1" xmlns="http://www.w3.org/2000/svg" desc="Created with imagetracer.js version 1.2.6" ><path fill="rgb(0,0,0)" stroke="rgb(0,0,0)" stroke-width="1" opacity="0" d="M 0 0 L 800 0 L 800 800 L 0 800 L 0 0 Z M 350 182 L 263 226 L 261 227 L 261 414 L 276 420 L 353 459 L 538 368 L 539 367 Q 538 362 540 361 L 540 280 L 539 274 L 537 274 L 508 258 L 382 195 L 372 192 L 370 194 L 370 282 L 375 285 L 445 321 L 385 351 L 357 364 L 353 364 L 353 263 L 352 262 L 352 183 L 350 182 Z M 45 526 L 45 615 L 46 616 L 47 618 L 65 618 L 65 580 L 66 579 L 67 570 L 91 616 L 94 618 L 113 618 L 113 527 L 113 526 L 93 526 L 93 574 L 66 528 L 66 526 L 45 526 Z M 135 526 L 134 527 L 130 528 L 130 616 L 134 618 L 191 618 L 191 618 L 191 601 L 190 599 L 155 599 L 151 598 L 150 596 L 150 580 L 179 580 L 179 563 L 150 563 L 150 546 L 188 546 L 189 545 L 189 526 L 135 526 Z M 205 526 L 201 528 L 229 571 L 229 575 L 226 580 L 202 616 L 203 618 L 225 618 L 239 596 L 244 592 L 259 616 L 262 618 L 283 618 L 276 605 L 255 573 L 281 533 L 283 527 L 280 526 L 262 526 L 243 553 L 226 529 L 224 526 L 205 526 Z M 298 526 L 298 618 L 299 618 L 317 618 L 317 612 L 318 611 L 318 594 L 322 593 L 337 593 L 342 592 L 353 585 Q 359 579 361 569 L 361 555 L 356 542 Q 350 533 340 528 L 298 526 Z M 373 526 L 373 618 L 431 618 L 431 599 L 392 599 L 392 531 L 391 527 L 373 526 Z M 528 526 L 524 527 L 524 531 L 553 586 L 553 618 L 573 618 L 574 585 L 606 528 L 603 526 L 587 526 L 585 527 L 564 562 L 545 529 L 542 526 L 528 526 Z M 618 526 L 618 618 L 679 618 L 680 600 L 678 599 L 642 599 L 638 598 L 638 591 L 637 590 L 637 581 L 638 580 L 667 580 L 667 563 L 637 563 L 637 546 L 676 546 L 676 527 L 672 526 L 618 526 Z M 696 526 L 692 527 L 692 617 L 694 618 L 712 618 L 712 593 L 724 593 L 735 617 L 736 618 L 753 618 L 752 612 L 741 590 Q 752 583 755 569 Q 758 549 749 541 Q 744 532 734 528 L 722 527 L 721 526 L 696 526 Z M 473 528 L 445 591 Q 444 595 446 595 L 462 595 L 467 588 L 484 549 L 492 566 L 505 598 L 504 599 L 441 600 L 454 617 L 455 618 L 513 618 L 525 602 L 525 598 L 520 585 L 495 530 L 494 528 L 473 528 Z " /><path fill="rgb(0,0,0)" stroke="rgb(0,0,0)" stroke-width="1" opacity="0" d="M 712 545 L 727.5 547 L 734 552.5 L 736 561.5 L 734 568.5 L 728.5 574 L 712 574 L 712 545 Z " /><path fill="rgb(0,0,0)" stroke="rgb(0,0,0)" stroke-width="1" opacity="0" d="M 318 546 L 332.5 547 L 340 552.5 L 342 562.5 L 341 567.5 L 336.5 573 L 333.5 574 L 318 574 L 318 546 Z " /><path fill="rgb(255,255,255)" stroke="rgb(255,255,255)" stroke-width="1" opacity="0.4666666666666667" d="M 349.5 182 L 352 182.5 L 352 200.5 L 351 200.5 L 351 183.5 L 349.5 183 L 330.5 193 L 331.5 191 L 349.5 182 Z " /><path fill="rgb(255,255,255)" stroke="rgb(255,255,255)" stroke-width="1" opacity="0.4666666666666667" d="M 373.5 192 L 377 193.5 L 375.5 194 L 373.5 192 Z " /><path fill="rgb(255,255,255)" stroke="rgb(255,255,255)" stroke-width="1" opacity="0.4666666666666667" d="M 327.5 193 L 329 193.5 L 263.5 226 L 263.5 225 L 327.5 193 Z " /><path fill="rgb(255,255,255)" stroke="rgb(255,255,255)" stroke-width="1" opacity="0.4666666666666667" d="M 370.5 193 L 371 281.5 L 372 282.5 L 370 281.5 L 370.5 193 Z " /><path fill="rgb(255,255,255)" stroke="rgb(255,255,255)" stroke-width="1" opacity="0.4666666666666667" d="M 380.5 195 L 455 232.5 L 453.5 232 L 380.5 196 L 380.5 195 Z " /><path fill="rgb(255,255,255)" stroke="rgb(255,255,255)" stroke-width="1" opacity="0.4666666666666667" d="M 261.5 226 L 262 412.5 L 263.5 414 L 275 419.5 L 273.5 420 L 261 414 L 261.5 226 Z " /><path fill="rgb(255,255,255)" stroke="rgb(255,255,255)" stroke-width="1" opacity="0.4666666666666667" d="M 456.5 233 L 465 237.5 L 463.5 237 L 456.5 234 L 456.5 233 Z " /><path fill="rgb(255,255,255)" stroke="rgb(255,255,255)" stroke-width="1" opacity="0.4666666666666667" d="M 466.5 238 L 471 240.5 L 469.5 240 Q 465.7 239.7 466.5 238 Z " /><path fill="rgb(255,255,255)" stroke="rgb(255,255,255)" stroke-width="1" opacity="0.4666666666666667" d="M 472.5 241 L 477 243.5 L 475.5 243 Q 471.7 242.7 472.5 241 Z " /><path fill="rgb(255,255,255)" stroke="rgb(255,255,255)" stroke-width="1" opacity="0.4666666666666667" d="M 478.5 244 L 487 248.5 L 485.5 248 L 478.5 245 L 478.5 244 Z " /><path fill="rgb(255,255,255)" stroke="rgb(255,255,255)" stroke-width="1" opacity="0.4666666666666667" d="M 488.5 249 L 491 250.5 L 489.5 250 L 488.5 249 Z " /><path fill="rgb(255,255,255)" stroke="rgb(255,255,255)" stroke-width="1" opacity="0.4666666666666667" d="M 498.5 254 L 501 255.5 L 499.5 256 L 498.5 254 Z " /><path fill="rgb(255,255,255)" stroke="rgb(255,255,255)" stroke-width="1" opacity="0.4666666666666667" d="M 502.5 256 L 505 257.5 L 503.5 257 L 502.5 256 Z " /><path fill="rgb(255,255,255)" stroke="rgb(255,255,255)" stroke-width="1" opacity="0.4666666666666667" d="M 506.5 258 L 509 259.5 L 507.5 259 L 506.5 258 Z " /><path fill="rgb(255,255,255)" stroke="rgb(255,255,255)" stroke-width="1" opacity="0.4666666666666667" d="M 352.5 262 L 353 358.5 L 352 358.5 L 352.5 262 Z " /><path fill="rgb(255,255,255)" stroke="rgb(255,255,255)" stroke-width="1" opacity="0.4666666666666667" d="M 514.5 262 L 536 273.5 L 534.5 273 L 515.5 264 L 514.5 262 Z " /><path fill="rgb(255,255,255)" stroke="rgb(255,255,255)" stroke-width="1" opacity="0.4666666666666667" d="M 537.5 274 Q 539.8 273.3 539 275.5 L 537.5 274 Z " /><path fill="rgb(255,255,255)" stroke="rgb(255,255,255)" stroke-width="1" opacity="0.4666666666666667" d="M 539.5 279 L 540 360.5 L 539 360.5 L 539.5 279 Z " /><path fill="rgb(255,255,255)" stroke="rgb(255,255,255)" stroke-width="1" opacity="0.4666666666666667" d="M 373.5 283 L 378 285.5 L 376.5 286 L 373.5 283 Z " /><path fill="rgb(255,255,255)" stroke="rgb(255,255,255)" stroke-width="1" opacity="0.4666666666666667" d="M 379.5 286 L 382 287.5 L 380.5 288 L 379.5 286 Z " /><path fill="rgb(255,255,255)" stroke="rgb(255,255,255)" stroke-width="1" opacity="0.4666666666666667" d="M 383.5 288 L 431 312.5 L 429.5 312 L 384.5 290 L 383.5 288 Z " /><path fill="rgb(255,255,255)" stroke="rgb(255,255,255)" stroke-width="1" opacity="0.4666666666666667" d="M 442.5 318 L 445 319.5 L 443.5 320 L 442.5 318 Z " /><path fill="rgb(255,255,255)" stroke="rgb(255,255,255)" stroke-width="1" opacity="0.4666666666666667" d="M 441.5 322 L 440.5 324 L 424.5 332 L 425.5 330 L 441.5 322 Z " /><path fill="rgb(255,255,255)" stroke="rgb(255,255,255)" stroke-width="1" opacity="0.4666666666666667" d="M 421.5 332 L 423 332.5 L 397.5 345 L 397.5 344 L 421.5 332 Z " /><path fill="rgb(255,255,255)" stroke="rgb(255,255,255)" stroke-width="1" opacity="0.4666666666666667" d="M 388.5 348 L 390 348.5 L 387.5 350 L 388.5 348 Z " /><path fill="rgb(255,255,255)" stroke="rgb(255,255,255)" stroke-width="1" opacity="0.4666666666666667" d="M 382.5 351 L 384 351.5 L 376.5 355 L 376.5 354 L 382.5 351 Z " /><path fill="rgb(255,255,255)" stroke="rgb(255,255,255)" stroke-width="1" opacity="0.4666666666666667" d="M 365.5 359 L 367 359.5 L 359.5 363 L 359.5 362 L 365.5 359 Z " /><path fill="rgb(255,255,255)" stroke="rgb(255,255,255)" stroke-width="1" opacity="0.4666666666666667" d="M 353.5 364 L 356 364.5 L 353.5 365 L 353.5 364 Z " /><path fill="rgb(255,255,255)" stroke="rgb(255,255,255)" stroke-width="1" opacity="0.4666666666666667" d="M 538.5 364 L 539 366.5 L 512.5 380 L 512.5 379 L 538 367 L 538.5 364 Z " /><path fill="rgb(255,255,255)" stroke="rgb(255,255,255)" stroke-width="1" opacity="0.4666666666666667" d="M 510.5 380 L 509.5 382 L 508 381.5 L 510.5 380 Z " /><path fill="rgb(255,255,255)" stroke="rgb(255,255,255)" stroke-width="1" opacity="0.4666666666666667" d="M 506.5 382 L 505.5 384 L 504 383.5 L 506.5 382 Z " /><path fill="rgb(255,255,255)" stroke="rgb(255,255,255)" stroke-width="1" opacity="0.4666666666666667" d="M 502.5 384 L 501.5 386 L 494.5 389 L 494.5 388 L 502.5 384 Z " /><path fill="rgb(255,255,255)" stroke="rgb(255,255,255)" stroke-width="1" opacity="0.4666666666666667" d="M 492.5 389 L 491.5 391 L 488.5 392 L 488.5 391 L 492.5 389 Z " /><path fill="rgb(255,255,255)" stroke="rgb(255,255,255)" stroke-width="1" opacity="0.4666666666666667" d="M 486.5 392 L 485.5 394 L 484 393.5 L 486.5 392 Z " /><path fill="rgb(255,255,255)" stroke="rgb(255,255,255)" stroke-width="1" opacity="0.4666666666666667" d="M 479.5 395 L 481 395.5 L 449.5 411 L 449.5 410 L 479.5 395 Z " /><path fill="rgb(255,255,255)" stroke="rgb(255,255,255)" stroke-width="1" opacity="0.4666666666666667" d="M 447.5 411 L 446.5 413 L 441.5 415 L 441.5 414 L 447.5 411 Z " /><path fill="rgb(255,255,255)" stroke="rgb(255,255,255)" stroke-width="1" opacity="0.4666666666666667" d="M 439.5 415 L 438.5 417 L 431.5 420 L 431.5 419 L 439.5 415 Z " /><path fill="rgb(255,255,255)" stroke="rgb(255,255,255)" stroke-width="1" opacity="0.4666666666666667" d="M 276.5 420 L 297 430.5 L 295.5 431 L 277.5 422 L 276.5 420 Z " /><path fill="rgb(255,255,255)" stroke="rgb(255,255,255)" stroke-width="1" opacity="0.4666666666666667" d="M 429.5 420 L 428.5 422 L 427 421.5 L 429.5 420 Z " /><path fill="rgb(255,255,255)" stroke="rgb(255,255,255)" stroke-width="1" opacity="0.4666666666666667" d="M 414.5 427 L 416 427.5 L 372.5 449 L 372.5 448 L 414.5 427 Z " /><path fill="rgb(255,255,255)" stroke="rgb(255,255,255)" stroke-width="1" opacity="0.4666666666666667" d="M 328.5 446 L 351 457.5 L 349.5 458 L 329.5 448 L 328.5 446 Z " /><path fill="rgb(255,255,255)" stroke="rgb(255,255,255)" stroke-width="1" opacity="0.4666666666666667" d="M 359.5 454 L 361 454.5 L 352.5 459 L 353.5 457 L 359.5 454 Z " /><path fill="rgb(255,255,255)" stroke="rgb(255,255,255)" stroke-width="1" opacity="0.4666666666666667" d="M 45 526 L 65.5 526 L 66 527.5 L 68 530.5 L 66 529.5 L 64.5 527 L 46.5 527 L 46 527.5 L 46 614.5 L 45 614.5 L 45 526 Z " /><path fill="rgb(255,255,255)" stroke="rgb(255,255,255)" stroke-width="1" opacity="0.4666666666666667" d="M 93 526 L 113 526.5 L 94 527 L 93.5 571 L 93 526 Z " /><path fill="rgb(255,255,255)" stroke="rgb(255,255,255)" stroke-width="1" opacity="0.4666666666666667" d="M 134.5 526 L 189 526 L 189 544.5 L 187.5 546 L 151.5 546 L 151.5 545 L 188 545 L 188 527 L 134.5 527 L 134.5 526 Z " /><path fill="rgb(255,255,255)" stroke="rgb(255,255,255)" stroke-width="1" opacity="0.4666666666666667" d="M 204.5 526 L 223.5 526 L 226 528.5 L 236 543.5 L 233 541.5 L 223.5 527 L 204.5 527 L 204.5 526 Z " /><path fill="rgb(255,255,255)" stroke="rgb(255,255,255)" stroke-width="1" opacity="0.4666666666666667" d="M 261.5 526 L 280 526.5 L 261.5 527 L 259.5 529 L 261.5 526 Z " /><path fill="rgb(255,255,255)" stroke="rgb(255,255,255)" stroke-width="1" opacity="0.4666666666666667" d="M 298 526 L 316 526.5 L 299 527 L 298.5 618 L 298 526 Z " /><path fill="rgb(255,255,255)" stroke="rgb(255,255,255)" stroke-width="1" opacity="0.4666666666666667" d="M 373 526 L 385 526.5 L 374 527 L 373.5 618 L 373 526 Z " /><path fill="rgb(255,255,255)" stroke="rgb(255,255,255)" stroke-width="1" opacity="0.4666666666666667" d="M 527.5 526 L 542 526.5 L 527.5 527 L 527.5 526 Z " /><path fill="rgb(255,255,255)" stroke="rgb(255,255,255)" stroke-width="1" opacity="0.4666666666666667" d="M 586.5 526 L 603 526.5 L 586.5 527 L 586.5 526 Z " /><path fill="rgb(255,255,255)" stroke="rgb(255,255,255)" stroke-width="1" opacity="0.4666666666666667" d="M 618 526 L 672 526.5 L 619 527 L 618.5 618 L 618 526 Z " /><path fill="rgb(255,255,255)" stroke="rgb(255,255,255)" stroke-width="1" opacity="0.4666666666666667" d="M 695.5 526 L 721 526.5 L 695.5 527 L 695.5 526 Z " /><path fill="rgb(255,255,255)" stroke="rgb(255,255,255)" stroke-width="1" opacity="0.4666666666666667" d="M 130.5 527 L 131 615.5 L 130 615.5 L 130.5 527 Z " /><path fill="rgb(255,255,255)" stroke="rgb(255,255,255)" stroke-width="1" opacity="0.4666666666666667" d="M 201.5 527 L 205 531.5 L 203 530.5 L 201.5 527 Z " /><path fill="rgb(255,255,255)" stroke="rgb(255,255,255)" stroke-width="1" opacity="0.4666666666666667" d="M 327.5 527 L 335 527.5 L 327.5 528 L 327.5 527 Z " /><path fill="rgb(255,255,255)" stroke="rgb(255,255,255)" stroke-width="1" opacity="0.4666666666666667" d="M 524.5 527 L 527 534.5 L 526 534.5 Q 523 531.8 524.5 527 Z " /><path fill="rgb(255,255,255)" stroke="rgb(255,255,255)" stroke-width="1" opacity="0.4666666666666667" d="M 543.5 527 L 544.5 529 L 543.5 527 Z " /><path fill="rgb(255,255,255)" stroke="rgb(255,255,255)" stroke-width="1" opacity="0.4666666666666667" d="M 675.5 527 L 676 546 L 639 545.5 L 675 545 L 675.5 527 Z " /><path fill="rgb(255,255,255)" stroke="rgb(255,255,255)" stroke-width="1" opacity="0.4666666666666667" d="M 692.5 527 L 693 617 L 696 617.5 L 693.5 618 L 692 616.5 L 692.5 527 Z " /><path fill="rgb(255,255,255)" stroke="rgb(255,255,255)" stroke-width="1" opacity="0.4666666666666667" d="M 725.5 527 L 730 527.5 L 725.5 528 L 725.5 527 Z " /><path fill="rgb(255,255,255)" stroke="rgb(255,255,255)" stroke-width="1" opacity="0.4666666666666667" d="M 337.5 528 L 342 529.5 L 340.5 530 L 337.5 529 L 337.5 528 Z " /><path fill="rgb(255,255,255)" stroke="rgb(255,255,255)" stroke-width="1" opacity="0.4666666666666667" d="M 583.5 528 L 583 529.5 L 580.5 534 L 581 532.5 L 583.5 528 Z " /><path fill="rgb(255,255,255)" stroke="rgb(255,255,255)" stroke-width="1" opacity="0.4666666666666667" d="M 258.5 530 L 257.5 532 L 258.5 530 Z " /><path fill="rgb(255,255,255)" stroke="rgb(255,255,255)" stroke-width="1" opacity="0.4666666666666667" d="M 281.5 530 L 281 531.5 L 277.5 537 L 278 535.5 L 281.5 530 Z " /><path fill="rgb(255,255,255)" stroke="rgb(255,255,255)" stroke-width="1" opacity="0.4666666666666667" d="M 343.5 530 L 344.5 532 L 343.5 530 Z " /><path fill="rgb(255,255,255)" stroke="rgb(255,255,255)" stroke-width="1" opacity="0.4666666666666667" d="M 391.5 530 L 392 563.5 L 391 563.5 L 391.5 530 Z " /><path fill="rgb(255,255,255)" stroke="rgb(255,255,255)" stroke-width="1" opacity="0.4666666666666667" d="M 472.5 530 L 473 531.5 L 469.5 538 L 469 536.5 L 472.5 530 Z " /><path fill="rgb(255,255,255)" stroke="rgb(255,255,255)" stroke-width="1" opacity="0.4666666666666667" d="M 545.5 530 L 550 537.5 L 548 536.5 L 545.5 530 Z " /><path fill="rgb(255,255,255)" stroke="rgb(255,255,255)" stroke-width="1" opacity="0.4666666666666667" d="M 737.5 530 L 749 540.5 L 739.5 532 L 737.5 530 Z " /><path fill="rgb(255,255,255)" stroke="rgb(255,255,255)" stroke-width="1" opacity="0.4666666666666667" d="M 495.5 531 L 498 536.5 L 497 536.5 L 495.5 531 Z " /><path fill="rgb(255,255,255)" stroke="rgb(255,255,255)" stroke-width="1" opacity="0.4666666666666667" d="M 603.5 531 L 603 532.5 L 599.5 539 L 600 537.5 L 603.5 531 Z " /><path fill="rgb(255,255,255)" stroke="rgb(255,255,255)" stroke-width="1" opacity="0.4666666666666667" d="M 346.5 532 L 355.5 542 L 346.5 532 Z " /><path fill="rgb(255,255,255)" stroke="rgb(255,255,255)" stroke-width="1" opacity="0.4666666666666667" d="M 205.5 533 L 206.5 535 L 205.5 533 Z " /><path fill="rgb(255,255,255)" stroke="rgb(255,255,255)" stroke-width="1" opacity="0.4666666666666667" d="M 256.5 533 L 255.5 535 L 256.5 533 Z " /><path fill="rgb(255,255,255)" stroke="rgb(255,255,255)" stroke-width="1" opacity="0.4666666666666667" d="M 69.5 534 L 74 541.5 L 72 540.5 L 69.5 534 Z " /><path fill="rgb(255,255,255)" stroke="rgb(255,255,255)" stroke-width="1" opacity="0.4666666666666667" d="M 207.5 536 L 210 539.5 L 208 538.5 L 207.5 536 Z " /><path fill="rgb(255,255,255)" stroke="rgb(255,255,255)" stroke-width="1" opacity="0.4666666666666667" d="M 254.5 536 L 253.5 538 L 254.5 536 Z " /><path fill="rgb(255,255,255)" stroke="rgb(255,255,255)" stroke-width="1" opacity="0.4666666666666667" d="M 578.5 537 L 578 538.5 L 575.5 543 L 576 541.5 L 578.5 537 Z " /><path fill="rgb(255,255,255)" stroke="rgb(255,255,255)" stroke-width="1" opacity="0.4666666666666667" d="M 276.5 538 L 275.5 540 L 276.5 538 Z " /><path fill="rgb(255,255,255)" stroke="rgb(255,255,255)" stroke-width="1" opacity="0.4666666666666667" d="M 252.5 539 L 251.5 541 L 252.5 539 Z " /><path fill="rgb(255,255,255)" stroke="rgb(255,255,255)" stroke-width="1" opacity="0.4666666666666667" d="M 499.5 540 L 503 547.5 L 502 547.5 L 499.5 540 Z " /><path fill="rgb(255,255,255)" stroke="rgb(255,255,255)" stroke-width="1" opacity="0.4666666666666667" d="M 529.5 540 L 539 557.5 L 537 556.5 L 529.5 540 Z " /><path fill="rgb(255,255,255)" stroke="rgb(255,255,255)" stroke-width="1" opacity="0.4666666666666667" d="M 210.5 541 L 211.5 543 L 210.5 541 Z " /><path fill="rgb(255,255,255)" stroke="rgb(255,255,255)" stroke-width="1" opacity="0.4666666666666667" d="M 274.5 541 L 273.5 543 L 274.5 541 Z " /><path fill="rgb(255,255,255)" stroke="rgb(255,255,255)" stroke-width="1" opacity="0.4666666666666667" d="M 467.5 541 L 468 542.5 L 465.5 547 L 465 545.5 L 467.5 541 Z " /><path fill="rgb(255,255,255)" stroke="rgb(255,255,255)" stroke-width="1" opacity="0.4666666666666667" d="M 250.5 542 L 249.5 544 L 250.5 542 Z " /><path fill="rgb(255,255,255)" stroke="rgb(255,255,255)" stroke-width="1" opacity="0.4666666666666667" d="M 597.5 542 L 597 543.5 L 594.5 548 L 595 546.5 L 597.5 542 Z " /><path fill="rgb(255,255,255)" stroke="rgb(255,255,255)" stroke-width="1" opacity="0.4666666666666667" d="M 749.5 542 L 750.5 544 L 749.5 542 Z " /><path fill="rgb(255,255,255)" stroke="rgb(255,255,255)" stroke-width="1" opacity="0.4666666666666667" d="M 74.5 543 L 80 552.5 L 78 551.5 L 74.5 543 Z " /><path fill="rgb(255,255,255)" stroke="rgb(255,255,255)" stroke-width="1" opacity="0.4666666666666667" d="M 212.5 544 L 213.5 546 L 212.5 544 Z " /><path fill="rgb(255,255,255)" stroke="rgb(255,255,255)" stroke-width="1" opacity="0.4666666666666667" d="M 272.5 544 L 272 545.5 L 266.5 554 L 267 552.5 L 272.5 544 Z " /><path fill="rgb(255,255,255)" stroke="rgb(255,255,255)" stroke-width="1" opacity="0.4666666666666667" d="M 574.5 544 L 574 545.5 L 571.5 550 L 572 548.5 L 574.5 544 Z " /><path fill="rgb(255,255,255)" stroke="rgb(255,255,255)" stroke-width="1" opacity="0.4666666666666667" d="M 236.5 545 L 237.5 547 L 236.5 545 Z " /><path fill="rgb(255,255,255)" stroke="rgb(255,255,255)" stroke-width="1" opacity="0.4666666666666667" d="M 248.5 545 L 247.5 547 L 248.5 545 Z " /><path fill="rgb(255,255,255)" stroke="rgb(255,255,255)" stroke-width="1" opacity="0.4666666666666667" d="M 317 545 L 321 545.5 L 318 546 L 318 574 L 332.5 574 L 332.5 575 L 317 575 L 317 545 Z " /><path fill="rgb(255,255,255)" stroke="rgb(255,255,255)" stroke-width="1" opacity="0.4666666666666667" d="M 553.5 545 L 559 554.5 L 557 553.5 L 553.5 545 Z " /><path fill="rgb(255,255,255)" stroke="rgb(255,255,255)" stroke-width="1" opacity="0.4666666666666667" d="M 711.5 545 L 712 574 L 728 574.5 L 711 575 L 711.5 545 Z " /><path fill="rgb(255,255,255)" stroke="rgb(255,255,255)" stroke-width="1" opacity="0.4666666666666667" d="M 716.5 545 L 723 545.5 L 716.5 546 L 716.5 545 Z " /><path fill="rgb(255,255,255)" stroke="rgb(255,255,255)" stroke-width="1" opacity="0.4666666666666667" d="M 751.5 545 L 754 550.5 L 753 550.5 L 751.5 545 Z " /><path fill="rgb(255,255,255)" stroke="rgb(255,255,255)" stroke-width="1" opacity="0.4666666666666667" d="M 149.5 546 L 150 562.5 L 149 562.5 L 149.5 546 Z " /><path fill="rgb(255,255,255)" stroke="rgb(255,255,255)" stroke-width="1" opacity="0.4666666666666667" d="M 325.5 546 L 332 546.5 L 325.5 547 L 325.5 546 Z " /><path fill="rgb(255,255,255)" stroke="rgb(255,255,255)" stroke-width="1" opacity="0.4666666666666667" d="M 724.5 546 L 727 546.5 L 724.5 547 L 724.5 546 Z " /><path fill="rgb(255,255,255)" stroke="rgb(255,255,255)" stroke-width="1" opacity="0.4666666666666667" d="M 214.5 547 L 215.5 549 L 214.5 547 Z " /><path fill="rgb(255,255,255)" stroke="rgb(255,255,255)" stroke-width="1" opacity="0.4666666666666667" d="M 333.5 547 L 341 552.5 L 342 557.5 L 341 557.5 Q 340.9 551.1 336.5 549 Q 332.8 548.8 333.5 547 Z " /><path fill="rgb(255,255,255)" stroke="rgb(255,255,255)" stroke-width="1" opacity="0.4666666666666667" d="M 728.5 547 L 734 551.5 L 730.5 549 L 728.5 547 Z " /><path fill="rgb(255,255,255)" stroke="rgb(255,255,255)" stroke-width="1" opacity="0.4666666666666667" d="M 238.5 548 L 242 552.5 L 241 552.5 L 238.5 548 Z " /><path fill="rgb(255,255,255)" stroke="rgb(255,255,255)" stroke-width="1" opacity="0.4666666666666667" d="M 246.5 548 L 245 550.5 L 243.5 553 L 244 551.5 L 246.5 548 Z " /><path fill="rgb(255,255,255)" stroke="rgb(255,255,255)" stroke-width="1" opacity="0.4666666666666667" d="M 484.5 549 L 487 553.5 L 485 552.5 L 484.5 549 Z " /><path fill="rgb(255,255,255)" stroke="rgb(255,255,255)" stroke-width="1" opacity="0.4666666666666667" d="M 593.5 549 L 593 550.5 L 588.5 559 L 589 557.5 L 593.5 549 Z " /><path fill="rgb(255,255,255)" stroke="rgb(255,255,255)" stroke-width="1" opacity="0.4666666666666667" d="M 216.5 550 L 217.5 552 L 216.5 550 Z " /><path fill="rgb(255,255,255)" stroke="rgb(255,255,255)" stroke-width="1" opacity="0.4666666666666667" d="M 359.5 550 L 360 552.5 L 359 552.5 L 359.5 550 Z " /><path fill="rgb(255,255,255)" stroke="rgb(255,255,255)" stroke-width="1" opacity="0.4666666666666667" d="M 463.5 550 L 464 551.5 L 460.5 558 L 460 556.5 L 463.5 550 Z " /><path fill="rgb(255,255,255)" stroke="rgb(255,255,255)" stroke-width="1" opacity="0.4666666666666667" d="M 504.5 551 L 507 556.5 L 506 556.5 L 504.5 551 Z " /><path fill="rgb(255,255,255)" stroke="rgb(255,255,255)" stroke-width="1" opacity="0.4666666666666667" d="M 570.5 551 L 570 552.5 L 567.5 557 L 568 555.5 L 570.5 551 Z " /><path fill="rgb(255,255,255)" stroke="rgb(255,255,255)" stroke-width="1" opacity="0.4666666666666667" d="M 481.5 552 L 482 553.5 L 479.5 558 L 479 556.5 L 481.5 552 Z " /><path fill="rgb(255,255,255)" stroke="rgb(255,255,255)" stroke-width="1" opacity="0.4666666666666667" d="M 754.5 552 L 755 568.5 L 754 568.5 L 754.5 552 Z " /><path fill="rgb(255,255,255)" stroke="rgb(255,255,255)" stroke-width="1" opacity="0.4666666666666667" d="M 218.5 553 L 219.5 555 L 218.5 553 Z " /><path fill="rgb(255,255,255)" stroke="rgb(255,255,255)" stroke-width="1" opacity="0.4666666666666667" d="M 80.5 554 L 86 563.5 L 84 562.5 L 80.5 554 Z " /><path fill="rgb(255,255,255)" stroke="rgb(255,255,255)" stroke-width="1" opacity="0.4666666666666667" d="M 360.5 554 L 361 568.5 L 360 568.5 L 360.5 554 Z " /><path fill="rgb(255,255,255)" stroke="rgb(255,255,255)" stroke-width="1" opacity="0.4666666666666667" d="M 265.5 555 L 264.5 557 L 265.5 555 Z " /><path fill="rgb(255,255,255)" stroke="rgb(255,255,255)" stroke-width="1" opacity="0.4666666666666667" d="M 735.5 555 L 736 557.5 L 735 557.5 L 735.5 555 Z " /><path fill="rgb(255,255,255)" stroke="rgb(255,255,255)" stroke-width="1" opacity="0.4666666666666667" d="M 220.5 556 L 221.5 558 L 220.5 556 Z " /><path fill="rgb(255,255,255)" stroke="rgb(255,255,255)" stroke-width="1" opacity="0.4666666666666667" d="M 488.5 557 L 491 562.5 L 490 562.5 L 488.5 557 Z " /><path fill="rgb(255,255,255)" stroke="rgb(255,255,255)" stroke-width="1" opacity="0.4666666666666667" d="M 263.5 558 L 263 559.5 L 259.5 565 L 260 563.5 L 263.5 558 Z " /><path fill="rgb(255,255,255)" stroke="rgb(255,255,255)" stroke-width="1" opacity="0.4666666666666667" d="M 560.5 558 L 563.5 562 L 566.5 558 L 566 559.5 L 563.5 563 L 560.5 558 Z " /><path fill="rgb(255,255,255)" stroke="rgb(255,255,255)" stroke-width="1" opacity="0.4666666666666667" d="M 222.5 559 L 227 565.5 L 225 564.5 L 222.5 559 Z " /><path fill="rgb(255,255,255)" stroke="rgb(255,255,255)" stroke-width="1" opacity="0.4666666666666667" d="M 587.5 560 L 587 561.5 L 583.5 568 L 584 566.5 L 587.5 560 Z " /><path fill="rgb(255,255,255)" stroke="rgb(255,255,255)" stroke-width="1" opacity="0.4666666666666667" d="M 458.5 561 L 459 562.5 L 456.5 567 L 456 565.5 L 458.5 561 Z " /><path fill="rgb(255,255,255)" stroke="rgb(255,255,255)" stroke-width="1" opacity="0.4666666666666667" d="M 477.5 561 L 478 562.5 L 475.5 567 L 475 565.5 L 477.5 561 Z " /><path fill="rgb(255,255,255)" stroke="rgb(255,255,255)" stroke-width="1" opacity="0.4666666666666667" d="M 540.5 561 L 546 570.5 L 544 569.5 L 540.5 561 Z " /><path fill="rgb(255,255,255)" stroke="rgb(255,255,255)" stroke-width="1" opacity="0.4666666666666667" d="M 509.5 562 L 512 567.5 L 511 567.5 L 509.5 562 Z " /><path fill="rgb(255,255,255)" stroke="rgb(255,255,255)" stroke-width="1" opacity="0.4666666666666667" d="M 735.5 562 L 736 565.5 L 735 565.5 L 735.5 562 Z " /><path fill="rgb(255,255,255)" stroke="rgb(255,255,255)" stroke-width="1" opacity="0.4666666666666667" d="M 178.5 563 L 179 580 L 151 579.5 L 178 579 L 178.5 563 Z " /><path fill="rgb(255,255,255)" stroke="rgb(255,255,255)" stroke-width="1" opacity="0.4666666666666667" d="M 341.5 563 L 342 566.5 L 341 566.5 L 341.5 563 Z " /><path fill="rgb(255,255,255)" stroke="rgb(255,255,255)" stroke-width="1" opacity="0.4666666666666667" d="M 86.5 565 L 89 568.5 L 87 567.5 L 86.5 565 Z " /><path fill="rgb(255,255,255)" stroke="rgb(255,255,255)" stroke-width="1" opacity="0.4666666666666667" d="M 258.5 566 L 258 567.5 L 256.5 570 L 257 568.5 L 258.5 566 Z " /><path fill="rgb(255,255,255)" stroke="rgb(255,255,255)" stroke-width="1" opacity="0.4666666666666667" d="M 492.5 566 L 495 571.5 L 494 571.5 L 492.5 566 Z " /><path fill="rgb(255,255,255)" stroke="rgb(255,255,255)" stroke-width="1" opacity="0.4666666666666667" d="M 227.5 567 Q 230.8 568.7 230 574.5 L 226.5 579 L 227 577.5 Q 229.8 575.8 229 570.5 L 227.5 567 Z " /><path fill="rgb(255,255,255)" stroke="rgb(255,255,255)" stroke-width="1" opacity="0.4666666666666667" d="M 666.5 567 L 667 580 L 638 579.5 L 666 579 L 666.5 567 Z " /><path fill="rgb(255,255,255)" stroke="rgb(255,255,255)" stroke-width="1" opacity="0.4666666666666667" d="M 65.5 568 Q 68.3 569.3 66 570.5 L 65.5 579 L 65.5 568 Z " /><path fill="rgb(255,255,255)" stroke="rgb(255,255,255)" stroke-width="1" opacity="0.4666666666666667" d="M 112.5 568 L 113 618 L 104 617.5 L 112 617 L 112.5 568 Z " /><path fill="rgb(255,255,255)" stroke="rgb(255,255,255)" stroke-width="1" opacity="0.4666666666666667" d="M 340.5 568 L 340 569.5 L 337.5 573 L 339 570.5 L 340.5 568 Z " /><path fill="rgb(255,255,255)" stroke="rgb(255,255,255)" stroke-width="1" opacity="0.4666666666666667" d="M 474.5 568 L 475 569.5 L 472.5 574 L 472 572.5 L 474.5 568 Z " /><path fill="rgb(255,255,255)" stroke="rgb(255,255,255)" stroke-width="1" opacity="0.4666666666666667" d="M 582.5 569 L 582 570.5 L 579.5 575 L 580 573.5 L 582.5 569 Z " /><path fill="rgb(255,255,255)" stroke="rgb(255,255,255)" stroke-width="1" opacity="0.4666666666666667" d="M 733.5 569 L 729.5 574 L 733.5 569 Z " /><path fill="rgb(255,255,255)" stroke="rgb(255,255,255)" stroke-width="1" opacity="0.4666666666666667" d="M 89.5 570 L 93 574.5 L 90 572.5 L 89.5 570 Z " /><path fill="rgb(255,255,255)" stroke="rgb(255,255,255)" stroke-width="1" opacity="0.4666666666666667" d="M 359.5 570 L 360 572.5 L 359 572.5 L 359.5 570 Z " /><path fill="rgb(255,255,255)" stroke="rgb(255,255,255)" stroke-width="1" opacity="0.4666666666666667" d="M 454.5 570 L 455 571.5 L 452.5 576 L 452 574.5 L 454.5 570 Z " /><path fill="rgb(255,255,255)" stroke="rgb(255,255,255)" stroke-width="1" opacity="0.4666666666666667" d="M 67.5 571 L 71 576.5 L 69 575.5 L 67.5 571 Z " /><path fill="rgb(255,255,255)" stroke="rgb(255,255,255)" stroke-width="1" opacity="0.4666666666666667" d="M 513.5 571 L 516 576.5 L 515 576.5 L 513.5 571 Z " /><path fill="rgb(255,255,255)" stroke="rgb(255,255,255)" stroke-width="1" opacity="0.4666666666666667" d="M 753.5 571 L 754 573.5 L 753 573.5 L 753.5 571 Z " /><path fill="rgb(255,255,255)" stroke="rgb(255,255,255)" stroke-width="1" opacity="0.4666666666666667" d="M 255.5 573 L 259 578.5 L 257 577.5 L 255.5 573 Z " /><path fill="rgb(255,255,255)" stroke="rgb(255,255,255)" stroke-width="1" opacity="0.4666666666666667" d="M 495.5 573 L 498 578.5 L 497 578.5 L 495.5 573 Z " /><path fill="rgb(255,255,255)" stroke="rgb(255,255,255)" stroke-width="1" opacity="0.4666666666666667" d="M 358.5 574 L 359 575.5 L 352.5 585 L 353 583.5 L 358.5 574 Z " /><path fill="rgb(255,255,255)" stroke="rgb(255,255,255)" stroke-width="1" opacity="0.4666666666666667" d="M 471.5 575 L 472 576.5 L 469.5 581 L 469 579.5 L 471.5 575 Z " /><path fill="rgb(255,255,255)" stroke="rgb(255,255,255)" stroke-width="1" opacity="0.4666666666666667" d="M 548.5 576 L 554 585.5 L 554 617.5 L 553 617.5 L 553 585.5 L 548.5 576 Z " /><path fill="rgb(255,255,255)" stroke="rgb(255,255,255)" stroke-width="1" opacity="0.4666666666666667" d="M 578.5 576 L 578 577.5 L 575.5 582 L 576 580.5 L 578.5 576 Z " /><path fill="rgb(255,255,255)" stroke="rgb(255,255,255)" stroke-width="1" opacity="0.4666666666666667" d="M 751.5 577 L 750.5 579 L 751.5 577 Z " /><path fill="rgb(255,255,255)" stroke="rgb(255,255,255)" stroke-width="1" opacity="0.4666666666666667" d="M 450.5 579 L 451 580.5 L 448.5 585 L 448 583.5 L 450.5 579 Z " /><path fill="rgb(255,255,255)" stroke="rgb(255,255,255)" stroke-width="1" opacity="0.4666666666666667" d="M 72.5 580 L 80 592.5 L 78 591.5 L 72.5 580 Z " /><path fill="rgb(255,255,255)" stroke="rgb(255,255,255)" stroke-width="1" opacity="0.4666666666666667" d="M 149.5 580 L 150 592.5 L 149 592.5 L 149.5 580 Z " /><path fill="rgb(255,255,255)" stroke="rgb(255,255,255)" stroke-width="1" opacity="0.4666666666666667" d="M 225.5 580 L 224.5 582 L 225.5 580 Z " /><path fill="rgb(255,255,255)" stroke="rgb(255,255,255)" stroke-width="1" opacity="0.4666666666666667" d="M 259.5 580 L 260.5 582 L 259.5 580 Z " /><path fill="rgb(255,255,255)" stroke="rgb(255,255,255)" stroke-width="1" opacity="0.4666666666666667" d="M 498.5 580 L 500 583.5 L 499 583.5 L 498.5 580 Z " /><path fill="rgb(255,255,255)" stroke="rgb(255,255,255)" stroke-width="1" opacity="0.4666666666666667" d="M 517.5 580 L 520 585.5 L 519 585.5 L 517.5 580 Z " /><path fill="rgb(255,255,255)" stroke="rgb(255,255,255)" stroke-width="1" opacity="0.4666666666666667" d="M 749.5 580 L 741.5 589 L 749.5 580 Z " /><path fill="rgb(255,255,255)" stroke="rgb(255,255,255)" stroke-width="1" opacity="0.4666666666666667" d="M 223.5 583 L 222.5 585 L 223.5 583 Z " /><path fill="rgb(255,255,255)" stroke="rgb(255,255,255)" stroke-width="1" opacity="0.4666666666666667" d="M 261.5 583 L 266 589.5 L 264 588.5 L 261.5 583 Z " /><path fill="rgb(255,255,255)" stroke="rgb(255,255,255)" stroke-width="1" opacity="0.4666666666666667" d="M 350.5 585 L 347.5 589 L 345.5 590 L 346.5 588 L 350.5 585 Z " /><path fill="rgb(255,255,255)" stroke="rgb(255,255,255)" stroke-width="1" opacity="0.4666666666666667" d="M 500.5 585 L 503 590.5 L 502 590.5 L 500.5 585 Z " /><path fill="rgb(255,255,255)" stroke="rgb(255,255,255)" stroke-width="1" opacity="0.4666666666666667" d="M 573.5 585 L 574 596.5 L 573 596.5 L 573.5 585 Z " /><path fill="rgb(255,255,255)" stroke="rgb(255,255,255)" stroke-width="1" opacity="0.4666666666666667" d="M 221.5 586 L 221 587.5 L 209.5 605 L 210 603.5 L 221.5 586 Z " /><path fill="rgb(255,255,255)" stroke="rgb(255,255,255)" stroke-width="1" opacity="0.4666666666666667" d="M 447.5 586 L 448 587.5 L 445.5 592 L 445 590.5 L 447.5 586 Z " /><path fill="rgb(255,255,255)" stroke="rgb(255,255,255)" stroke-width="1" opacity="0.4666666666666667" d="M 466.5 586 L 467 587.5 L 461.5 595 L 457 594.5 Q 462.5 595 464 591.5 L 466.5 586 Z " /><path fill="rgb(255,255,255)" stroke="rgb(255,255,255)" stroke-width="1" opacity="0.4666666666666667" d="M 520.5 587 L 522 590.5 L 521 590.5 L 520.5 587 Z " /><path fill="rgb(255,255,255)" stroke="rgb(255,255,255)" stroke-width="1" opacity="0.4666666666666667" d="M 342.5 590 L 344 590.5 L 339.5 592 L 339.5 591 L 342.5 590 Z " /><path fill="rgb(255,255,255)" stroke="rgb(255,255,255)" stroke-width="1" opacity="0.4666666666666667" d="M 637.5 590 L 638 598 L 641 598.5 L 638.5 599 L 637 597.5 L 637.5 590 Z " /><path fill="rgb(255,255,255)" stroke="rgb(255,255,255)" stroke-width="1" opacity="0.4666666666666667" d="M 741.5 590 L 748 603.5 L 747 603.5 L 741 591.5 L 741.5 590 Z " /><path fill="rgb(255,255,255)" stroke="rgb(255,255,255)" stroke-width="1" opacity="0.4666666666666667" d="M 242.5 591 L 245 592.5 L 243.5 592 L 239.5 595 L 242.5 591 Z " /><path fill="rgb(255,255,255)" stroke="rgb(255,255,255)" stroke-width="1" opacity="0.4666666666666667" d="M 266.5 591 L 267.5 593 L 266.5 591 Z " /><path fill="rgb(255,255,255)" stroke="rgb(255,255,255)" stroke-width="1" opacity="0.4666666666666667" d="M 329.5 592 L 337 592.5 L 329.5 593 L 329.5 592 Z " /><path fill="rgb(255,255,255)" stroke="rgb(255,255,255)" stroke-width="1" opacity="0.4666666666666667" d="M 318.5 593 L 321 593.5 L 318.5 594 L 318.5 593 Z " /><path fill="rgb(255,255,255)" stroke="rgb(255,255,255)" stroke-width="1" opacity="0.4666666666666667" d="M 711.5 593 L 712 618 L 703 617.5 L 711 617 L 711.5 593 Z " /><path fill="rgb(255,255,255)" stroke="rgb(255,255,255)" stroke-width="1" opacity="0.4666666666666667" d="M 64.5 594 L 65 618 L 56 617.5 L 64 617 L 64.5 594 Z " /><path fill="rgb(255,255,255)" stroke="rgb(255,255,255)" stroke-width="1" opacity="0.4666666666666667" d="M 245.5 594 L 246.5 596 L 245.5 594 Z " /><path fill="rgb(255,255,255)" stroke="rgb(255,255,255)" stroke-width="1" opacity="0.4666666666666667" d="M 268.5 594 L 277 606.5 L 275 605.5 L 268.5 594 Z " /><path fill="rgb(255,255,255)" stroke="rgb(255,255,255)" stroke-width="1" opacity="0.4666666666666667" d="M 81.5 596 L 86 603.5 L 84 602.5 L 81.5 596 Z " /><path fill="rgb(255,255,255)" stroke="rgb(255,255,255)" stroke-width="1" opacity="0.4666666666666667" d="M 150.5 596 L 151 598 L 154 598.5 L 150 599 L 150.5 596 Z " /><path fill="rgb(255,255,255)" stroke="rgb(255,255,255)" stroke-width="1" opacity="0.4666666666666667" d="M 238.5 596 L 237 598.5 L 234.5 602 L 236 599.5 L 238.5 596 Z " /><path fill="rgb(255,255,255)" stroke="rgb(255,255,255)" stroke-width="1" opacity="0.4666666666666667" d="M 317.5 596 L 318 610.5 L 317 610.5 L 317.5 596 Z " /><path fill="rgb(255,255,255)" stroke="rgb(255,255,255)" stroke-width="1" opacity="0.4666666666666667" d="M 247.5 597 L 259 613.5 L 256 611.5 L 247.5 597 Z " /><path fill="rgb(255,255,255)" stroke="rgb(255,255,255)" stroke-width="1" opacity="0.4666666666666667" d="M 524.5 597 L 525 599.5 L 524 599.5 L 524.5 597 Z " /><path fill="rgb(255,255,255)" stroke="rgb(255,255,255)" stroke-width="1" opacity="0.4666666666666667" d="M 726.5 598 L 735 615.5 L 734 615.5 L 726 599.5 L 726.5 598 Z " /><path fill="rgb(255,255,255)" stroke="rgb(255,255,255)" stroke-width="1" opacity="0.4666666666666667" d="M 164.5 599 L 190 599.5 L 164.5 600 L 164.5 599 Z " /><path fill="rgb(255,255,255)" stroke="rgb(255,255,255)" stroke-width="1" opacity="0.4666666666666667" d="M 392.5 599 L 431 599.5 L 392.5 600 L 392.5 599 Z " /><path fill="rgb(255,255,255)" stroke="rgb(255,255,255)" stroke-width="1" opacity="0.4666666666666667" d="M 441.5 599 L 500 599.5 L 443 600 L 445 603.5 L 442 601.5 L 441.5 599 Z " /><path fill="rgb(255,255,255)" stroke="rgb(255,255,255)" stroke-width="1" opacity="0.4666666666666667" d="M 651.5 599 L 678 599.5 L 651.5 600 L 651.5 599 Z " /><path fill="rgb(255,255,255)" stroke="rgb(255,255,255)" stroke-width="1" opacity="0.4666666666666667" d="M 679.5 600 L 680 608.5 L 679 608.5 L 679.5 600 Z " /><path fill="rgb(255,255,255)" stroke="rgb(255,255,255)" stroke-width="1" opacity="0.4666666666666667" d="M 233.5 603 L 232.5 605 L 233.5 603 Z " /><path fill="rgb(255,255,255)" stroke="rgb(255,255,255)" stroke-width="1" opacity="0.4666666666666667" d="M 523.5 603 L 521.5 606 L 523.5 603 Z " /><path fill="rgb(255,255,255)" stroke="rgb(255,255,255)" stroke-width="1" opacity="0.4666666666666667" d="M 445.5 605 L 447.5 608 L 445.5 605 Z " /><path fill="rgb(255,255,255)" stroke="rgb(255,255,255)" stroke-width="1" opacity="0.4666666666666667" d="M 208.5 606 L 208 607.5 L 204.5 613 L 205 611.5 L 208.5 606 Z " /><path fill="rgb(255,255,255)" stroke="rgb(255,255,255)" stroke-width="1" opacity="0.4666666666666667" d="M 231.5 606 L 231 607.5 L 227.5 613 L 228 611.5 L 231.5 606 Z " /><path fill="rgb(255,255,255)" stroke="rgb(255,255,255)" stroke-width="1" opacity="0.4666666666666667" d="M 520.5 607 L 517 611.5 L 513 618 L 486 617.5 L 511.5 617 L 516 612.5 L 520.5 607 Z " /><path fill="rgb(255,255,255)" stroke="rgb(255,255,255)" stroke-width="1" opacity="0.4666666666666667" d="M 277.5 608 L 280 611.5 L 278 610.5 L 277.5 608 Z " /><path fill="rgb(255,255,255)" stroke="rgb(255,255,255)" stroke-width="1" opacity="0.4666666666666667" d="M 88.5 609 L 93 616.5 L 91 615.5 L 88.5 609 Z " /><path fill="rgb(255,255,255)" stroke="rgb(255,255,255)" stroke-width="1" opacity="0.4666666666666667" d="M 448.5 609 L 450.5 612 L 448.5 609 Z " /><path fill="rgb(255,255,255)" stroke="rgb(255,255,255)" stroke-width="1" opacity="0.4666666666666667" d="M 572.5 609 L 573 618 L 564 617.5 L 572 617 L 572.5 609 Z " /><path fill="rgb(255,255,255)" stroke="rgb(255,255,255)" stroke-width="1" opacity="0.4666666666666667" d="M 750.5 609 L 752 612.5 L 751 612.5 L 750.5 609 Z " /><path fill="rgb(255,255,255)" stroke="rgb(255,255,255)" stroke-width="1" opacity="0.4666666666666667" d="M 430.5 610 L 431 618 L 405 617.5 L 430 617 L 430.5 610 Z " /><path fill="rgb(255,255,255)" stroke="rgb(255,255,255)" stroke-width="1" opacity="0.4666666666666667" d="M 280.5 613 L 283 617.5 L 282 617.5 L 280.5 613 Z " /><path fill="rgb(255,255,255)" stroke="rgb(255,255,255)" stroke-width="1" opacity="0.4666666666666667" d="M 451.5 613 L 455 617.5 L 454 617.5 L 451.5 613 Z " /><path fill="rgb(255,255,255)" stroke="rgb(255,255,255)" stroke-width="1" opacity="0.4666666666666667" d="M 203.5 614 L 203 615.5 Q 202.1 618.5 206.5 617 L 206.5 618 Q 200.7 620.1 202 615.5 L 203.5 614 Z " /><path fill="rgb(255,255,255)" stroke="rgb(255,255,255)" stroke-width="1" opacity="0.4666666666666667" d="M 226.5 614 L 225.5 616 L 226.5 614 Z " /><path fill="rgb(255,255,255)" stroke="rgb(255,255,255)" stroke-width="1" opacity="0.4666666666666667" d="M 259.5 615 L 261.5 617 L 270 617.5 L 261.5 618 L 259.5 615 Z " /><path fill="rgb(255,255,255)" stroke="rgb(255,255,255)" stroke-width="1" opacity="0.4666666666666667" d="M 133.5 617 L 153 617.5 L 133.5 618 L 133.5 617 Z " /><path fill="rgb(255,255,255)" stroke="rgb(255,255,255)" stroke-width="1" opacity="0.4666666666666667" d="M 309.5 617 L 317 617.5 L 309.5 618 L 309.5 617 Z " /><path fill="rgb(255,255,255)" stroke="rgb(255,255,255)" stroke-width="1" opacity="0.4666666666666667" d="M 652.5 617 L 679 617.5 L 652.5 618 L 652.5 617 Z " /><path fill="rgb(255,255,255)" stroke="rgb(255,255,255)" stroke-width="1" opacity="0.996078431372549" d="M 349.5 183 L 351 183.5 L 351 200.5 L 352 201.5 L 352 358.5 L 353 365 Q 401.4 345.6 445 320.5 Q 445.8 318.3 443.5 319 L 371 281.5 L 371 192.5 L 372.5 192 L 513.5 262 L 539 276.5 L 539 363.5 L 538 367 L 351.5 458 L 262 412.5 L 262 226.5 L 264.5 226 L 349.5 183 Z " /><path fill="rgb(255,255,255)" stroke="rgb(255,255,255)" stroke-width="1" opacity="0.996078431372549" d="M 46 527 L 64.5 527 L 66 528.5 L 84 562.5 L 92.5 575 L 94 570.5 L 94 527 L 113 527 L 113 567.5 L 112 568.5 L 112 617 L 93 618 Q 81.2 591.7 65.5 568 L 64 617 L 47.5 618 L 46 616.5 L 46 527 Z " /><path fill="rgb(255,255,255)" stroke="rgb(255,255,255)" stroke-width="1" opacity="0.996078431372549" d="M 131 527 L 187.5 527 L 188 527.5 L 188 545 L 151.5 545 L 149 546 L 149 563 L 178 563 L 178 579 L 151.5 579 L 149 580 L 150 599 L 191 600 L 191 618 L 153.5 618 L 152.5 617 L 131 617 L 131 527 Z " /><path fill="rgb(255,255,255)" stroke="rgb(255,255,255)" stroke-width="1" opacity="0.996078431372549" d="M 202.5 527 L 223.5 527 L 225 528.5 L 241 553 L 245 551.5 L 261.5 527 L 283 527.5 L 257 567.5 L 255 574.5 L 277 607.5 L 282 618 L 261.5 617 L 259 614.5 L 243.5 591 L 239 594.5 L 223.5 618 Q 210.5 619.3 203 617 L 209 605.5 L 230 574.5 L 230 570.5 L 202.5 527 Z " /><path fill="rgb(255,255,255)" stroke="rgb(255,255,255)" stroke-width="1" opacity="0.996078431372549" d="M 299 527 L 336.5 528 Q 349.5 532 356 542.5 Q 362.1 551.9 360 569.5 Q 357.7 579.2 351.5 585 Q 346.7 590.2 338.5 592 L 318 593 L 317 596.5 L 317 617 L 299 618 L 299 527 Z M 317 545 L 317 575 L 333 575 L 338 573 L 342 567 L 342 555 L 341 553 Q 338 548 332 546 Q 322 547 317 545 Z " /><path fill="rgb(255,255,255)" stroke="rgb(255,255,255)" stroke-width="1" opacity="0.996078431372549" d="M 374 527 L 388.5 527 L 391 528 L 392 600 L 430.5 600 L 431 600.5 L 431 609.5 L 430 610.5 L 430 617 L 374 618 L 374 527 Z " /><path fill="rgb(255,255,255)" stroke="rgb(255,255,255)" stroke-width="1" opacity="0.996078431372549" d="M 525 527 L 542.5 527 L 545 529.5 L 557 553.5 L 563.5 563 Q 575.7 546.3 584 527 L 604.5 527 L 605 528.5 L 573 585.5 L 573 608.5 L 572 609.5 L 572 617 L 554 618 L 554 585.5 L 527 535.5 L 525 527 Z " /><path fill="rgb(255,255,255)" stroke="rgb(255,255,255)" stroke-width="1" opacity="0.996078431372549" d="M 619 527 L 674.5 527 L 675 527.5 L 675 545 L 639.5 545 L 637 546 L 637 563 L 665.5 563 L 667 566.5 L 666 567.5 L 666 579 L 638.5 579 L 636 580.5 L 637 581.5 L 637 597.5 L 638.5 599 L 679 600 L 679 617 L 652.5 617 L 651.5 618 L 619 618 L 619 527 Z " /><path fill="rgb(255,255,255)" stroke="rgb(255,255,255)" stroke-width="1" opacity="0.996078431372549" d="M 693 527 L 724.5 527 Q 726 529.5 731.5 528 Q 742.8 532.2 749 541.5 L 754 551.5 L 754 570.5 Q 750.5 582.5 741 588.5 L 741 591.5 L 753 616.5 L 750.5 618 L 736.5 618 L 723.5 593 L 711 593 L 711 616.5 L 710.5 617 L 703.5 617 Q 702 619.5 696.5 618 L 693 617 L 693 527 Z M 711 545 L 711 575 L 728 575 L 730 574 L 736 566 Q 738 556 734 552 L 727 546 L 711 545 Z " /><path fill="rgb(255,255,255)" stroke="rgb(255,255,255)" stroke-width="1" opacity="0.996078431372549" d="M 474.5 528 L 493.5 528 L 494 529.5 L 517 579.5 L 525 600.5 L 511.5 617 L 455 618 L 443 600 L 499.5 600 L 505 599 L 503 589.5 L 485 549 L 482 550.5 L 469 581.5 L 461.5 594 L 447.5 595 L 445 594 L 474.5 528 Z " /></svg>