<svg xmlns="http://www.w3.org/2000/svg" viewBox="0 0 24 24" fill="white"><path d="M22.282 9.821a5.985 5.985 0 00-.516-4.91 6.046 6.046 0 00-6.51-2.9A6.065 6.065 0 0011.7 0 6.068 6.068 0 005.7 4.075a6.06 6.06 0 00-4.042 2.936 6.07 6.07 0 00.747 7.122 5.985 5.985 0 00.516 4.911 6.053 6.053 0 006.51 2.9A6.12 6.12 0 0013.2 24a6.068 6.068 0 006-4.075 6.06 6.06 0 004.042-2.936 6.068 6.068 0 00-.96-7.168zM13.2 22.43a4.58 4.58 0 01-2.94-1.068l.147-.084 4.882-2.82a.794.794 0 00.4-.693v-6.874l2.064 1.192a.073.073 0 01.04.056v5.705a4.6 4.6 0 01-4.593 4.586zM3.753 18.3a4.562 4.562 0 01-.547-3.07l.147.088 4.882 2.82a.793.793 0 00.8 0l5.96-3.441v2.384a.078.078 0 01-.03.064L9.98 19.99a4.6 4.6 0 01-6.228-1.69zM2.477 7.88A4.56 4.56 0 014.867 5.8v5.795a.79.79 0 00.4.69l5.96 3.44-2.065 1.19a.076.076 0 01-.07.006L4.11 14.08A4.6 4.6 0 012.477 7.88zm17.066 3.974l-5.96-3.44 2.064-1.192a.077.077 0 01.07-.006l4.983 2.846a4.59 4.59 0 01-1.157 8.254v-5.77a.794.794 0 00-.4-.692zm2.056-3.13l-.147-.088-4.882-2.82a.793.793 0 00-.8 0l-5.96 3.44V6.873a.077.077 0 01.03-.064l4.983-2.844a4.59 4.59 0 016.776 4.76zM8.667 12.9l-2.065-1.19a.075.075 0 01-.04-.057V5.948a4.59 4.59 0 017.533-3.518l-.147.084-4.882 2.82a.794.794 0 00-.4.693zm1.12-2.413l2.656-1.534 2.656 1.533v3.067l-2.656 1.533-2.656-1.533z"/></svg>
