<svg xmlns="http://www.w3.org/2000/svg" viewBox="0 0 30 30">
  <path d="M21,4H9C6.239,4,4,6.239,4,9v12c0,2.761,2.239,5,5,5h12c2.761,0,5-2.239,5-5V9C26,6.239,23.761,4,21,4z M22.665,22.026c0,0-0.738-1.445-2.208-1.445C19.04,20.581,17.853,22,15,22c-5.612,0-8.825-5.312-8.825-5.312s5.627,3.91,9.392,1.046C11.7,15.005,7.739,9.293,7.739,9.293s3.434,3.026,6.766,5.1c-1.479-1.513-4.658-5.882-4.658-5.882s4.641,4.607,8.075,6.545c1.496-3.927-1.411-7.854-1.411-7.854c6.936,4.658,4.93,10.353,4.93,10.353S23.345,19.595,22.665,22.026z"/>
</svg>
